# xmcd
#
# Track frame offsets:
#  150
#  17526
#  34566
#  53131
#  71223
#  87455
#  103977
#  122167
#  142483
#  158750
#
# Disc length: 2366 seconds
#
# Revision: 0
# Processed by: cddbd v1.5.1PL2 Copyright (c) Steve Scherf et al.
# Submitted via: AltoMP3_Maker 3.0
#
DISCID=8f093c0a
DTITLE=Giovanni Marradi - Los Beatles Al Piano
DYEAR=1900
DGENRE=
TTITLE0=I Wanna Hold Your Hand
TTITLE1=Michelle
TTITLE2=Girl
TTITLE3=Hey Jude
TTITLE4=If I Fell In Love
TTITLE5=In My Life
TTITLE6=Eleanor Rigby
TTITLE7=Penny Lane
TTITLE8=Good Night
TTITLE9=A Taste Of Honey
EXTD=
EXTT0=
EXTT1=
EXTT2=
EXTT3=
EXTT4=
EXTT5=
EXTT6=
EXTT7=
EXTT8=
EXTT9=
PLAYORDER=
